<svg xmlns="http://www.w3.org/2000/svg" width="220" height="280" viewBox="0 0 220 280">
  <g stroke="#334155" stroke-width="1.4" fill="none" stroke-linecap="round" opacity="0.07">
    <!-- Tower legs -->
    <line x1="110" y1="18" x2="78" y2="268"/>
    <line x1="110" y1="18" x2="142" y2="268"/>
    <!-- Horizontal struts -->
    <line x1="88" y1="68" x2="132" y2="68"/>
    <line x1="90" y1="108" x2="130" y2="108"/>
    <line x1="93" y1="148" x2="127" y2="148"/>
    <line x1="95" y1="188" x2="125" y2="188"/>
    <line x1="97" y1="228" x2="123" y2="228"/>
    <!-- Cross braces -->
    <line x1="88" y1="68" x2="130" y2="108"/>
    <line x1="132" y1="68" x2="90" y2="108"/>
    <line x1="90" y1="108" x2="127" y2="148"/>
    <line x1="130" y1="108" x2="93" y2="148"/>
    <line x1="93" y1="148" x2="125" y2="188"/>
    <line x1="127" y1="148" x2="95" y2="188"/>
    <line x1="95" y1="188" x2="123" y2="228"/>
    <line x1="125" y1="188" x2="97" y2="228"/>
    <!-- Top cross arm -->
    <line x1="58" y1="38" x2="162" y2="38"/>
    <line x1="110" y1="18" x2="110" y2="38"/>
    <!-- Mid cross arm -->
    <line x1="66" y1="58" x2="154" y2="58"/>
    <!-- Power lines -->
    <line x1="0" y1="42" x2="58" y2="38"/>
    <line x1="0" y1="62" x2="66" y2="58"/>
    <line x1="0" y1="72" x2="88" y2="68"/>
    <line x1="162" y1="38" x2="220" y2="42"/>
    <line x1="154" y1="58" x2="220" y2="62"/>
    <line x1="132" y1="68" x2="220" y2="72"/>
  </g>
</svg>
